<mxfile host="app.diagrams.net" modified="2023-10-26T19:56:19.790Z" agent="Mozilla/5.0 (Windows NT 10.0; Win64; x64) AppleWebKit/537.36 (KHTML, like Gecko) Chrome/118.0.0.0 Safari/537.36" etag="wxSUz2BJx2Du-DWZvLyB" version="22.0.8" type="device">
  <diagram name="Page-1" id="kX2ij5QodVAJBufudZ0M">
    <mxGraphModel dx="2863" dy="637" grid="1" gridSize="10" guides="1" tooltips="1" connect="1" arrows="1" fold="1" page="1" pageScale="1" pageWidth="850" pageHeight="1100" math="0" shadow="0">
      <root>
        <mxCell id="0" />
        <mxCell id="1" parent="0" />
        <mxCell id="DTLKnMH4hchgX7WC-vSb-1" value="FILL REGISTRATION FORM" style="ellipse;whiteSpace=wrap;html=1;aspect=fixed;" parent="1" vertex="1">
          <mxGeometry x="450" y="158" width="90" height="90" as="geometry" />
        </mxCell>
        <mxCell id="DTLKnMH4hchgX7WC-vSb-2" value="" style="endArrow=none;html=1;rounded=0;exitX=0.051;exitY=0.274;exitDx=0;exitDy=0;exitPerimeter=0;entryX=0.972;entryY=0.286;entryDx=0;entryDy=0;entryPerimeter=0;" parent="1" source="DTLKnMH4hchgX7WC-vSb-1" target="DTLKnMH4hchgX7WC-vSb-1" edge="1">
          <mxGeometry width="50" height="50" relative="1" as="geometry">
            <mxPoint x="455" y="188" as="sourcePoint" />
            <mxPoint x="535" y="188" as="targetPoint" />
          </mxGeometry>
        </mxCell>
        <mxCell id="DTLKnMH4hchgX7WC-vSb-3" value="0.14" style="text;html=1;strokeColor=none;fillColor=none;align=center;verticalAlign=middle;whiteSpace=wrap;rounded=0;" parent="1" vertex="1">
          <mxGeometry x="465" y="158" width="60" height="30" as="geometry" />
        </mxCell>
        <mxCell id="DTLKnMH4hchgX7WC-vSb-49" style="edgeStyle=orthogonalEdgeStyle;rounded=0;orthogonalLoop=1;jettySize=auto;html=1;exitX=1;exitY=0.5;exitDx=0;exitDy=0;entryX=0;entryY=0.5;entryDx=0;entryDy=0;" parent="1" source="DTLKnMH4hchgX7WC-vSb-50" target="DTLKnMH4hchgX7WC-vSb-68" edge="1">
          <mxGeometry relative="1" as="geometry">
            <mxPoint x="-180" y="185.38461538461524" as="targetPoint" />
          </mxGeometry>
        </mxCell>
        <mxCell id="DTLKnMH4hchgX7WC-vSb-50" value="FILL REGISTRATION FORM" style="ellipse;whiteSpace=wrap;html=1;aspect=fixed;" parent="1" vertex="1">
          <mxGeometry x="-345" y="140" width="90" height="90" as="geometry" />
        </mxCell>
        <mxCell id="DTLKnMH4hchgX7WC-vSb-51" value="" style="endArrow=none;html=1;rounded=0;exitX=0.051;exitY=0.274;exitDx=0;exitDy=0;exitPerimeter=0;entryX=0.972;entryY=0.286;entryDx=0;entryDy=0;entryPerimeter=0;" parent="1" source="DTLKnMH4hchgX7WC-vSb-50" target="DTLKnMH4hchgX7WC-vSb-50" edge="1">
          <mxGeometry width="50" height="50" relative="1" as="geometry">
            <mxPoint x="-340" y="170" as="sourcePoint" />
            <mxPoint x="-260" y="170" as="targetPoint" />
          </mxGeometry>
        </mxCell>
        <mxCell id="DTLKnMH4hchgX7WC-vSb-52" value="0.1" style="text;html=1;strokeColor=none;fillColor=none;align=center;verticalAlign=middle;whiteSpace=wrap;rounded=0;" parent="1" vertex="1">
          <mxGeometry x="-330" y="140" width="60" height="30" as="geometry" />
        </mxCell>
        <mxCell id="DTLKnMH4hchgX7WC-vSb-53" value="FILL LOGIN CREDENTIAL" style="ellipse;whiteSpace=wrap;html=1;aspect=fixed;" parent="1" vertex="1">
          <mxGeometry x="-344" y="271" width="90" height="90" as="geometry" />
        </mxCell>
        <mxCell id="DTLKnMH4hchgX7WC-vSb-54" value="" style="endArrow=none;html=1;rounded=0;exitX=0.051;exitY=0.274;exitDx=0;exitDy=0;exitPerimeter=0;entryX=0.972;entryY=0.286;entryDx=0;entryDy=0;entryPerimeter=0;" parent="1" source="DTLKnMH4hchgX7WC-vSb-53" target="DTLKnMH4hchgX7WC-vSb-53" edge="1">
          <mxGeometry width="50" height="50" relative="1" as="geometry">
            <mxPoint x="-339" y="301" as="sourcePoint" />
            <mxPoint x="-259" y="301" as="targetPoint" />
          </mxGeometry>
        </mxCell>
        <mxCell id="DTLKnMH4hchgX7WC-vSb-55" value="0.2" style="text;html=1;strokeColor=none;fillColor=none;align=center;verticalAlign=middle;whiteSpace=wrap;rounded=0;" parent="1" vertex="1">
          <mxGeometry x="-329" y="271" width="60" height="30" as="geometry" />
        </mxCell>
        <mxCell id="DTLKnMH4hchgX7WC-vSb-56" style="edgeStyle=orthogonalEdgeStyle;rounded=0;orthogonalLoop=1;jettySize=auto;html=1;exitX=0;exitY=0.5;exitDx=0;exitDy=0;entryX=0.998;entryY=0.669;entryDx=0;entryDy=0;entryPerimeter=0;" parent="1" edge="1">
          <mxGeometry relative="1" as="geometry">
            <mxPoint x="-620.2599999999998" y="213.73000000000002" as="targetPoint" />
            <mxPoint x="-274.0000000000091" y="465" as="sourcePoint" />
            <Array as="points">
              <mxPoint x="-430" y="466" />
              <mxPoint x="-430" y="214" />
            </Array>
          </mxGeometry>
        </mxCell>
        <mxCell id="DTLKnMH4hchgX7WC-vSb-57" value="BROWSE COURSE OR SEARCH&amp;nbsp;" style="ellipse;whiteSpace=wrap;html=1;aspect=fixed;" parent="1" vertex="1">
          <mxGeometry x="-354" y="410" width="110" height="110" as="geometry" />
        </mxCell>
        <mxCell id="DTLKnMH4hchgX7WC-vSb-58" value="" style="endArrow=none;html=1;rounded=0;exitX=0.051;exitY=0.274;exitDx=0;exitDy=0;exitPerimeter=0;entryX=0.972;entryY=0.286;entryDx=0;entryDy=0;entryPerimeter=0;" parent="1" source="DTLKnMH4hchgX7WC-vSb-57" target="DTLKnMH4hchgX7WC-vSb-57" edge="1">
          <mxGeometry width="50" height="50" relative="1" as="geometry">
            <mxPoint x="-339" y="440" as="sourcePoint" />
            <mxPoint x="-259" y="440" as="targetPoint" />
          </mxGeometry>
        </mxCell>
        <mxCell id="DTLKnMH4hchgX7WC-vSb-59" value="0.3" style="text;html=1;strokeColor=none;fillColor=none;align=center;verticalAlign=middle;whiteSpace=wrap;rounded=0;" parent="1" vertex="1">
          <mxGeometry x="-328" y="410" width="60" height="30" as="geometry" />
        </mxCell>
        <mxCell id="DTLKnMH4hchgX7WC-vSb-60" value="BUY COURSE" style="ellipse;whiteSpace=wrap;html=1;aspect=fixed;" parent="1" vertex="1">
          <mxGeometry x="-345" y="570" width="90" height="90" as="geometry" />
        </mxCell>
        <mxCell id="DTLKnMH4hchgX7WC-vSb-61" value="" style="endArrow=none;html=1;rounded=0;exitX=0.051;exitY=0.274;exitDx=0;exitDy=0;exitPerimeter=0;entryX=0.972;entryY=0.286;entryDx=0;entryDy=0;entryPerimeter=0;" parent="1" source="DTLKnMH4hchgX7WC-vSb-60" target="DTLKnMH4hchgX7WC-vSb-60" edge="1">
          <mxGeometry width="50" height="50" relative="1" as="geometry">
            <mxPoint x="-328" y="541" as="sourcePoint" />
            <mxPoint x="-248" y="541" as="targetPoint" />
          </mxGeometry>
        </mxCell>
        <mxCell id="DTLKnMH4hchgX7WC-vSb-62" value="0.4" style="text;html=1;strokeColor=none;fillColor=none;align=center;verticalAlign=middle;whiteSpace=wrap;rounded=0;" parent="1" vertex="1">
          <mxGeometry x="-330" y="570" width="60" height="30" as="geometry" />
        </mxCell>
        <mxCell id="DTLKnMH4hchgX7WC-vSb-63" style="edgeStyle=orthogonalEdgeStyle;rounded=0;orthogonalLoop=1;jettySize=auto;html=1;exitX=1;exitY=0.5;exitDx=0;exitDy=0;entryX=0;entryY=0.5;entryDx=0;entryDy=0;" parent="1" target="DTLKnMH4hchgX7WC-vSb-50" edge="1">
          <mxGeometry relative="1" as="geometry">
            <mxPoint x="-620" y="185" as="sourcePoint" />
          </mxGeometry>
        </mxCell>
        <mxCell id="DTLKnMH4hchgX7WC-vSb-64" style="edgeStyle=orthogonalEdgeStyle;rounded=0;orthogonalLoop=1;jettySize=auto;html=1;exitX=1;exitY=0.75;exitDx=0;exitDy=0;entryX=0;entryY=0.5;entryDx=0;entryDy=0;" parent="1" target="DTLKnMH4hchgX7WC-vSb-53" edge="1">
          <mxGeometry relative="1" as="geometry">
            <mxPoint x="-620" y="227.5" as="sourcePoint" />
            <Array as="points">
              <mxPoint x="-620" y="200" />
              <mxPoint x="-400" y="200" />
              <mxPoint x="-400" y="316" />
            </Array>
          </mxGeometry>
        </mxCell>
        <mxCell id="DTLKnMH4hchgX7WC-vSb-65" style="edgeStyle=orthogonalEdgeStyle;rounded=0;orthogonalLoop=1;jettySize=auto;html=1;exitX=1;exitY=0.75;exitDx=0;exitDy=0;entryX=0;entryY=0.5;entryDx=0;entryDy=0;" parent="1" target="DTLKnMH4hchgX7WC-vSb-60" edge="1">
          <mxGeometry relative="1" as="geometry">
            <mxPoint x="-500" y="631" as="targetPoint" />
            <mxPoint x="-620" y="227.5" as="sourcePoint" />
          </mxGeometry>
        </mxCell>
        <mxCell id="DTLKnMH4hchgX7WC-vSb-66" style="edgeStyle=orthogonalEdgeStyle;rounded=0;orthogonalLoop=1;jettySize=auto;html=1;exitX=1;exitY=1;exitDx=0;exitDy=0;" parent="1" edge="1">
          <mxGeometry relative="1" as="geometry">
            <mxPoint x="-620" y="270.3333333333335" as="targetPoint" />
            <mxPoint x="-620" y="270" as="sourcePoint" />
          </mxGeometry>
        </mxCell>
        <mxCell id="DTLKnMH4hchgX7WC-vSb-67" style="edgeStyle=orthogonalEdgeStyle;rounded=0;orthogonalLoop=1;jettySize=auto;html=1;exitX=0.5;exitY=1;exitDx=0;exitDy=0;entryX=1;entryY=0.5;entryDx=0;entryDy=0;" parent="1" source="DTLKnMH4hchgX7WC-vSb-68" target="DTLKnMH4hchgX7WC-vSb-90" edge="1">
          <mxGeometry relative="1" as="geometry" />
        </mxCell>
        <mxCell id="DTLKnMH4hchgX7WC-vSb-68" value="USER DB ( RDBMS)" style="shape=datastore;whiteSpace=wrap;html=1;" parent="1" vertex="1">
          <mxGeometry x="15.659999999999968" y="152.5" width="94.34" height="65" as="geometry" />
        </mxCell>
        <mxCell id="DTLKnMH4hchgX7WC-vSb-69" value="STORE IN DB" style="text;html=1;align=center;verticalAlign=middle;resizable=0;points=[];autosize=1;strokeColor=none;fillColor=none;" parent="1" vertex="1">
          <mxGeometry x="-190" y="158" width="100" height="30" as="geometry" />
        </mxCell>
        <mxCell id="DTLKnMH4hchgX7WC-vSb-70" value="" style="endArrow=classic;startArrow=classic;html=1;rounded=0;entryX=0;entryY=0.7;entryDx=0;entryDy=0;exitX=1;exitY=0.5;exitDx=0;exitDy=0;" parent="1" source="DTLKnMH4hchgX7WC-vSb-53" target="DTLKnMH4hchgX7WC-vSb-68" edge="1">
          <mxGeometry width="50" height="50" relative="1" as="geometry">
            <mxPoint x="-250" y="320" as="sourcePoint" />
            <mxPoint x="-200" y="270" as="targetPoint" />
          </mxGeometry>
        </mxCell>
        <mxCell id="DTLKnMH4hchgX7WC-vSb-71" value="CHECK VALIDITY OF CREDENTIAL" style="text;html=1;align=center;verticalAlign=middle;resizable=0;points=[];autosize=1;strokeColor=none;fillColor=none;" parent="1" vertex="1">
          <mxGeometry x="-230" y="241" width="220" height="30" as="geometry" />
        </mxCell>
        <mxCell id="DTLKnMH4hchgX7WC-vSb-72" value="REGISTRATION" style="text;html=1;align=center;verticalAlign=middle;resizable=0;points=[];autosize=1;strokeColor=none;fillColor=none;" parent="1" vertex="1">
          <mxGeometry x="-449" y="150" width="110" height="30" as="geometry" />
        </mxCell>
        <mxCell id="DTLKnMH4hchgX7WC-vSb-73" value="LOG IN" style="text;html=1;align=center;verticalAlign=middle;resizable=0;points=[];autosize=1;strokeColor=none;fillColor=none;" parent="1" vertex="1">
          <mxGeometry x="-403" y="260" width="60" height="30" as="geometry" />
        </mxCell>
        <mxCell id="DTLKnMH4hchgX7WC-vSb-74" style="edgeStyle=orthogonalEdgeStyle;rounded=0;orthogonalLoop=1;jettySize=auto;html=1;exitX=0;exitY=0.5;exitDx=0;exitDy=0;entryX=1;entryY=0.5;entryDx=0;entryDy=0;" parent="1" source="DTLKnMH4hchgX7WC-vSb-76" target="DTLKnMH4hchgX7WC-vSb-57" edge="1">
          <mxGeometry relative="1" as="geometry" />
        </mxCell>
        <mxCell id="DTLKnMH4hchgX7WC-vSb-75" style="edgeStyle=orthogonalEdgeStyle;rounded=0;orthogonalLoop=1;jettySize=auto;html=1;exitX=1;exitY=0.5;exitDx=0;exitDy=0;entryX=0;entryY=0.5;entryDx=0;entryDy=0;" parent="1" source="DTLKnMH4hchgX7WC-vSb-76" target="DTLKnMH4hchgX7WC-vSb-106" edge="1">
          <mxGeometry relative="1" as="geometry" />
        </mxCell>
        <mxCell id="DTLKnMH4hchgX7WC-vSb-76" value="COURSE DB ( NON-RDBMS )" style="shape=datastore;whiteSpace=wrap;html=1;" parent="1" vertex="1">
          <mxGeometry x="145.29999999999998" y="510" width="94.34" height="65" as="geometry" />
        </mxCell>
        <mxCell id="DTLKnMH4hchgX7WC-vSb-77" value="FETCH&amp;nbsp; COURSE DETAILS FROM DB" style="text;html=1;align=center;verticalAlign=middle;resizable=0;points=[];autosize=1;strokeColor=none;fillColor=none;" parent="1" vertex="1">
          <mxGeometry x="-228" y="440" width="230" height="30" as="geometry" />
        </mxCell>
        <mxCell id="DTLKnMH4hchgX7WC-vSb-78" value="BROWSE COURSE" style="text;html=1;align=center;verticalAlign=middle;resizable=0;points=[];autosize=1;strokeColor=none;fillColor=none;" parent="1" vertex="1">
          <mxGeometry x="-459" y="380" width="130" height="30" as="geometry" />
        </mxCell>
        <mxCell id="DTLKnMH4hchgX7WC-vSb-79" value="PAYMENT" style="text;html=1;align=center;verticalAlign=middle;resizable=0;points=[];autosize=1;strokeColor=none;fillColor=none;" parent="1" vertex="1">
          <mxGeometry x="-450" y="570" width="80" height="30" as="geometry" />
        </mxCell>
        <mxCell id="DTLKnMH4hchgX7WC-vSb-80" style="edgeStyle=orthogonalEdgeStyle;rounded=0;orthogonalLoop=1;jettySize=auto;html=1;exitX=1;exitY=0.5;exitDx=0;exitDy=0;entryX=0.15;entryY=0.95;entryDx=0;entryDy=0;entryPerimeter=0;" parent="1" source="DTLKnMH4hchgX7WC-vSb-60" edge="1">
          <mxGeometry relative="1" as="geometry">
            <mxPoint x="-264.17" y="678.25" as="sourcePoint" />
            <mxPoint x="25.640999999999735" y="217.5" as="targetPoint" />
          </mxGeometry>
        </mxCell>
        <mxCell id="DTLKnMH4hchgX7WC-vSb-81" value="UPDATE COURSE LIST &lt;br&gt;ASSOCIATED WITH &lt;br&gt;THE USER" style="text;html=1;align=center;verticalAlign=middle;resizable=0;points=[];autosize=1;strokeColor=none;fillColor=none;" parent="1" vertex="1">
          <mxGeometry x="-145" y="610" width="150" height="60" as="geometry" />
        </mxCell>
        <mxCell id="DTLKnMH4hchgX7WC-vSb-82" style="edgeStyle=orthogonalEdgeStyle;rounded=0;orthogonalLoop=1;jettySize=auto;html=1;exitX=0;exitY=0.5;exitDx=0;exitDy=0;entryX=0.998;entryY=0.826;entryDx=0;entryDy=0;entryPerimeter=0;" parent="1" edge="1">
          <mxGeometry relative="1" as="geometry">
            <mxPoint x="-617.3299999999998" y="241.0899999999998" as="targetPoint" />
            <mxPoint x="-342.07" y="765.6700000000001" as="sourcePoint" />
            <Array as="points">
              <mxPoint x="-500" y="766" />
              <mxPoint x="-500" y="241" />
            </Array>
          </mxGeometry>
        </mxCell>
        <mxCell id="DTLKnMH4hchgX7WC-vSb-83" value="ACCESS COURSE" style="ellipse;whiteSpace=wrap;html=1;aspect=fixed;" parent="1" vertex="1">
          <mxGeometry x="-345" y="720" width="90" height="90" as="geometry" />
        </mxCell>
        <mxCell id="DTLKnMH4hchgX7WC-vSb-84" value="" style="endArrow=none;html=1;rounded=0;exitX=0.051;exitY=0.274;exitDx=0;exitDy=0;exitPerimeter=0;entryX=0.972;entryY=0.286;entryDx=0;entryDy=0;entryPerimeter=0;" parent="1" source="DTLKnMH4hchgX7WC-vSb-83" target="DTLKnMH4hchgX7WC-vSb-83" edge="1">
          <mxGeometry width="50" height="50" relative="1" as="geometry">
            <mxPoint x="-328" y="691" as="sourcePoint" />
            <mxPoint x="-248" y="691" as="targetPoint" />
          </mxGeometry>
        </mxCell>
        <mxCell id="DTLKnMH4hchgX7WC-vSb-85" value="0.5" style="text;html=1;strokeColor=none;fillColor=none;align=center;verticalAlign=middle;whiteSpace=wrap;rounded=0;" parent="1" vertex="1">
          <mxGeometry x="-328" y="720" width="60" height="30" as="geometry" />
        </mxCell>
        <mxCell id="DTLKnMH4hchgX7WC-vSb-86" value="ACCESS&amp;nbsp;" style="text;html=1;align=center;verticalAlign=middle;resizable=0;points=[];autosize=1;strokeColor=none;fillColor=none;" parent="1" vertex="1">
          <mxGeometry x="-480" y="738" width="80" height="30" as="geometry" />
        </mxCell>
        <mxCell id="DTLKnMH4hchgX7WC-vSb-87" style="edgeStyle=orthogonalEdgeStyle;rounded=0;orthogonalLoop=1;jettySize=auto;html=1;exitX=1;exitY=0.5;exitDx=0;exitDy=0;entryX=0.15;entryY=0.95;entryDx=0;entryDy=0;entryPerimeter=0;" parent="1" source="DTLKnMH4hchgX7WC-vSb-83" target="DTLKnMH4hchgX7WC-vSb-68" edge="1">
          <mxGeometry relative="1" as="geometry" />
        </mxCell>
        <mxCell id="DTLKnMH4hchgX7WC-vSb-88" value="SAVE PROGRESS&amp;nbsp;&lt;br&gt;FOR THE COURSE&amp;nbsp;&lt;br&gt;ASSOCIATED WITH USER" style="text;html=1;align=center;verticalAlign=middle;resizable=0;points=[];autosize=1;strokeColor=none;fillColor=none;" parent="1" vertex="1">
          <mxGeometry x="-155" y="708" width="170" height="60" as="geometry" />
        </mxCell>
        <mxCell id="DTLKnMH4hchgX7WC-vSb-89" style="edgeStyle=orthogonalEdgeStyle;rounded=0;orthogonalLoop=1;jettySize=auto;html=1;exitX=0;exitY=0.5;exitDx=0;exitDy=0;entryX=1;entryY=0.75;entryDx=0;entryDy=0;" parent="1" source="DTLKnMH4hchgX7WC-vSb-90" target="DTLKnMH4hchgX7WC-vSb-99" edge="1">
          <mxGeometry relative="1" as="geometry" />
        </mxCell>
        <mxCell id="DTLKnMH4hchgX7WC-vSb-90" value="VIEW PROFILE" style="ellipse;whiteSpace=wrap;html=1;aspect=fixed;" parent="1" vertex="1">
          <mxGeometry x="-444" y="890" width="90" height="90" as="geometry" />
        </mxCell>
        <mxCell id="DTLKnMH4hchgX7WC-vSb-91" value="" style="endArrow=none;html=1;rounded=0;exitX=0.051;exitY=0.274;exitDx=0;exitDy=0;exitPerimeter=0;entryX=0.972;entryY=0.286;entryDx=0;entryDy=0;entryPerimeter=0;" parent="1" source="DTLKnMH4hchgX7WC-vSb-90" target="DTLKnMH4hchgX7WC-vSb-90" edge="1">
          <mxGeometry width="50" height="50" relative="1" as="geometry">
            <mxPoint x="-427" y="861" as="sourcePoint" />
            <mxPoint x="-347" y="861" as="targetPoint" />
          </mxGeometry>
        </mxCell>
        <mxCell id="DTLKnMH4hchgX7WC-vSb-92" value="0.6" style="text;html=1;strokeColor=none;fillColor=none;align=center;verticalAlign=middle;whiteSpace=wrap;rounded=0;" parent="1" vertex="1">
          <mxGeometry x="-427" y="890" width="60" height="30" as="geometry" />
        </mxCell>
        <mxCell id="DTLKnMH4hchgX7WC-vSb-93" style="edgeStyle=orthogonalEdgeStyle;rounded=0;orthogonalLoop=1;jettySize=auto;html=1;exitX=1;exitY=0.5;exitDx=0;exitDy=0;" parent="1" source="DTLKnMH4hchgX7WC-vSb-94" edge="1">
          <mxGeometry relative="1" as="geometry">
            <mxPoint x="30" y="201.9192165798611" as="targetPoint" />
          </mxGeometry>
        </mxCell>
        <mxCell id="DTLKnMH4hchgX7WC-vSb-94" value="UPDATE PROFILE DETAILS" style="ellipse;whiteSpace=wrap;html=1;aspect=fixed;" parent="1" vertex="1">
          <mxGeometry x="-345" y="1020" width="90" height="90" as="geometry" />
        </mxCell>
        <mxCell id="DTLKnMH4hchgX7WC-vSb-95" value="" style="endArrow=none;html=1;rounded=0;exitX=0.051;exitY=0.274;exitDx=0;exitDy=0;exitPerimeter=0;entryX=0.972;entryY=0.286;entryDx=0;entryDy=0;entryPerimeter=0;" parent="1" source="DTLKnMH4hchgX7WC-vSb-94" target="DTLKnMH4hchgX7WC-vSb-94" edge="1">
          <mxGeometry width="50" height="50" relative="1" as="geometry">
            <mxPoint x="-328" y="991" as="sourcePoint" />
            <mxPoint x="-248" y="991" as="targetPoint" />
          </mxGeometry>
        </mxCell>
        <mxCell id="DTLKnMH4hchgX7WC-vSb-96" value="0.7" style="text;html=1;strokeColor=none;fillColor=none;align=center;verticalAlign=middle;whiteSpace=wrap;rounded=0;" parent="1" vertex="1">
          <mxGeometry x="-328" y="1020" width="60" height="30" as="geometry" />
        </mxCell>
        <mxCell id="DTLKnMH4hchgX7WC-vSb-97" value="" style="endArrow=classic;html=1;rounded=0;exitX=1.009;exitY=0.907;exitDx=0;exitDy=0;exitPerimeter=0;entryX=0;entryY=0.5;entryDx=0;entryDy=0;" parent="1" target="DTLKnMH4hchgX7WC-vSb-94" edge="1">
          <mxGeometry width="50" height="50" relative="1" as="geometry">
            <mxPoint x="-649.9999999999999" y="271.19000000000005" as="sourcePoint" />
            <mxPoint x="-541" y="1070" as="targetPoint" />
            <Array as="points">
              <mxPoint x="-541.1700000000001" y="271" />
              <mxPoint x="-541" y="1060" />
            </Array>
          </mxGeometry>
        </mxCell>
        <mxCell id="DTLKnMH4hchgX7WC-vSb-98" value="SAVE CHANGES&lt;br&gt;TO USERDB" style="text;html=1;align=center;verticalAlign=middle;resizable=0;points=[];autosize=1;strokeColor=none;fillColor=none;" parent="1" vertex="1">
          <mxGeometry x="-215" y="1030" width="120" height="40" as="geometry" />
        </mxCell>
        <mxCell id="DTLKnMH4hchgX7WC-vSb-99" value="&lt;b&gt;STUDENT&lt;/b&gt;" style="rounded=0;whiteSpace=wrap;html=1;" parent="1" vertex="1">
          <mxGeometry x="-750" y="180" width="130" height="90" as="geometry" />
        </mxCell>
        <mxCell id="DTLKnMH4hchgX7WC-vSb-100" value="VIEW PROFILE" style="text;html=1;align=center;verticalAlign=middle;resizable=0;points=[];autosize=1;strokeColor=none;fillColor=none;" parent="1" vertex="1">
          <mxGeometry x="-489" y="860" width="110" height="30" as="geometry" />
        </mxCell>
        <mxCell id="DTLKnMH4hchgX7WC-vSb-101" value="/UPDATE PROFILE" style="text;html=1;align=center;verticalAlign=middle;resizable=0;points=[];autosize=1;strokeColor=none;fillColor=none;" parent="1" vertex="1">
          <mxGeometry x="-520" y="1030" width="130" height="30" as="geometry" />
        </mxCell>
        <mxCell id="DTLKnMH4hchgX7WC-vSb-102" style="edgeStyle=orthogonalEdgeStyle;rounded=0;orthogonalLoop=1;jettySize=auto;html=1;exitX=0.577;exitY=1.075;exitDx=0;exitDy=0;entryX=1;entryY=0.5;entryDx=0;entryDy=0;exitPerimeter=0;" parent="1" source="DTLKnMH4hchgX7WC-vSb-104" target="DTLKnMH4hchgX7WC-vSb-111" edge="1">
          <mxGeometry relative="1" as="geometry">
            <mxPoint x="707.5" y="353" as="sourcePoint" />
            <Array as="points">
              <mxPoint x="708" y="255" />
              <mxPoint x="708" y="620" />
            </Array>
          </mxGeometry>
        </mxCell>
        <mxCell id="DTLKnMH4hchgX7WC-vSb-103" style="edgeStyle=orthogonalEdgeStyle;rounded=0;orthogonalLoop=1;jettySize=auto;html=1;entryX=1;entryY=0.5;entryDx=0;entryDy=0;exitX=0.677;exitY=1.075;exitDx=0;exitDy=0;exitPerimeter=0;" parent="1" source="DTLKnMH4hchgX7WC-vSb-104" target="DTLKnMH4hchgX7WC-vSb-116" edge="1">
          <mxGeometry relative="1" as="geometry">
            <mxPoint x="720" y="353" as="sourcePoint" />
            <Array as="points">
              <mxPoint x="718" y="353" />
              <mxPoint x="720" y="353" />
              <mxPoint x="720" y="800" />
            </Array>
          </mxGeometry>
        </mxCell>
        <mxCell id="DTLKnMH4hchgX7WC-vSb-104" value="&lt;b&gt;TEACHER&lt;/b&gt;" style="rounded=0;whiteSpace=wrap;html=1;" parent="1" vertex="1">
          <mxGeometry x="630" y="158" width="130" height="90" as="geometry" />
        </mxCell>
        <mxCell id="DTLKnMH4hchgX7WC-vSb-105" style="edgeStyle=orthogonalEdgeStyle;rounded=0;orthogonalLoop=1;jettySize=auto;html=1;exitX=1;exitY=0.5;exitDx=0;exitDy=0;" parent="1" source="DTLKnMH4hchgX7WC-vSb-106" edge="1">
          <mxGeometry relative="1" as="geometry">
            <mxPoint x="675" y="250" as="targetPoint" />
          </mxGeometry>
        </mxCell>
        <mxCell id="DTLKnMH4hchgX7WC-vSb-106" value="VIEW UPLOADED CONTENT" style="ellipse;whiteSpace=wrap;html=1;aspect=fixed;" parent="1" vertex="1">
          <mxGeometry x="390" y="415" width="92" height="92" as="geometry" />
        </mxCell>
        <mxCell id="DTLKnMH4hchgX7WC-vSb-107" value="" style="endArrow=none;html=1;rounded=0;exitX=0.051;exitY=0.274;exitDx=0;exitDy=0;exitPerimeter=0;entryX=0.972;entryY=0.286;entryDx=0;entryDy=0;entryPerimeter=0;" parent="1" source="DTLKnMH4hchgX7WC-vSb-106" target="DTLKnMH4hchgX7WC-vSb-106" edge="1">
          <mxGeometry width="50" height="50" relative="1" as="geometry">
            <mxPoint x="409" y="386" as="sourcePoint" />
            <mxPoint x="489" y="386" as="targetPoint" />
          </mxGeometry>
        </mxCell>
        <mxCell id="DTLKnMH4hchgX7WC-vSb-108" style="edgeStyle=orthogonalEdgeStyle;rounded=0;orthogonalLoop=1;jettySize=auto;html=1;exitX=1;exitY=0.5;exitDx=0;exitDy=0;entryX=1;entryY=0.5;entryDx=0;entryDy=0;" parent="1" source="DTLKnMH4hchgX7WC-vSb-109" target="DTLKnMH4hchgX7WC-vSb-143" edge="1">
          <mxGeometry relative="1" as="geometry">
            <mxPoint x="540" y="250" as="targetPoint" />
            <Array as="points">
              <mxPoint x="530" y="430" />
              <mxPoint x="530" y="350" />
              <mxPoint x="410" y="350" />
            </Array>
          </mxGeometry>
        </mxCell>
        <mxCell id="DTLKnMH4hchgX7WC-vSb-109" value="0.8" style="text;html=1;strokeColor=none;fillColor=none;align=center;verticalAlign=middle;whiteSpace=wrap;rounded=0;" parent="1" vertex="1">
          <mxGeometry x="409" y="415" width="60" height="30" as="geometry" />
        </mxCell>
        <mxCell id="DTLKnMH4hchgX7WC-vSb-110" style="edgeStyle=orthogonalEdgeStyle;rounded=0;orthogonalLoop=1;jettySize=auto;html=1;exitX=0;exitY=0.5;exitDx=0;exitDy=0;entryX=0.5;entryY=1;entryDx=0;entryDy=0;" parent="1" source="DTLKnMH4hchgX7WC-vSb-111" target="DTLKnMH4hchgX7WC-vSb-76" edge="1">
          <mxGeometry relative="1" as="geometry" />
        </mxCell>
        <mxCell id="DTLKnMH4hchgX7WC-vSb-111" value="UPLOAD&amp;nbsp; NEW CONTENT" style="ellipse;whiteSpace=wrap;html=1;aspect=fixed;" parent="1" vertex="1">
          <mxGeometry x="392" y="575" width="90" height="90" as="geometry" />
        </mxCell>
        <mxCell id="DTLKnMH4hchgX7WC-vSb-112" value="" style="endArrow=none;html=1;rounded=0;exitX=0.051;exitY=0.274;exitDx=0;exitDy=0;exitPerimeter=0;entryX=0.972;entryY=0.286;entryDx=0;entryDy=0;entryPerimeter=0;" parent="1" source="DTLKnMH4hchgX7WC-vSb-111" target="DTLKnMH4hchgX7WC-vSb-111" edge="1">
          <mxGeometry width="50" height="50" relative="1" as="geometry">
            <mxPoint x="409" y="546" as="sourcePoint" />
            <mxPoint x="489" y="546" as="targetPoint" />
          </mxGeometry>
        </mxCell>
        <mxCell id="DTLKnMH4hchgX7WC-vSb-113" style="edgeStyle=orthogonalEdgeStyle;rounded=0;orthogonalLoop=1;jettySize=auto;html=1;exitX=1;exitY=0.5;exitDx=0;exitDy=0;entryX=1;entryY=0.5;entryDx=0;entryDy=0;" parent="1" source="DTLKnMH4hchgX7WC-vSb-114" target="DTLKnMH4hchgX7WC-vSb-143" edge="1">
          <mxGeometry relative="1" as="geometry">
            <mxPoint x="541.8285435267857" y="278.17138671875" as="targetPoint" />
            <Array as="points">
              <mxPoint x="469" y="515" />
              <mxPoint x="540" y="515" />
              <mxPoint x="540" y="350" />
              <mxPoint x="410" y="350" />
            </Array>
          </mxGeometry>
        </mxCell>
        <mxCell id="DTLKnMH4hchgX7WC-vSb-114" value="0.9" style="text;html=1;strokeColor=none;fillColor=none;align=center;verticalAlign=middle;whiteSpace=wrap;rounded=0;" parent="1" vertex="1">
          <mxGeometry x="409" y="575" width="60" height="30" as="geometry" />
        </mxCell>
        <mxCell id="DTLKnMH4hchgX7WC-vSb-115" style="edgeStyle=orthogonalEdgeStyle;rounded=0;orthogonalLoop=1;jettySize=auto;html=1;exitX=0;exitY=0.5;exitDx=0;exitDy=0;entryX=0.5;entryY=1;entryDx=0;entryDy=0;" parent="1" source="DTLKnMH4hchgX7WC-vSb-116" target="DTLKnMH4hchgX7WC-vSb-76" edge="1">
          <mxGeometry relative="1" as="geometry" />
        </mxCell>
        <mxCell id="DTLKnMH4hchgX7WC-vSb-116" value="UPDATE CONTENT" style="ellipse;whiteSpace=wrap;html=1;aspect=fixed;" parent="1" vertex="1">
          <mxGeometry x="395" y="755" width="90" height="90" as="geometry" />
        </mxCell>
        <mxCell id="DTLKnMH4hchgX7WC-vSb-117" value="" style="endArrow=none;html=1;rounded=0;exitX=0.051;exitY=0.274;exitDx=0;exitDy=0;exitPerimeter=0;entryX=0.972;entryY=0.286;entryDx=0;entryDy=0;entryPerimeter=0;" parent="1" source="DTLKnMH4hchgX7WC-vSb-116" target="DTLKnMH4hchgX7WC-vSb-116" edge="1">
          <mxGeometry width="50" height="50" relative="1" as="geometry">
            <mxPoint x="412" y="726" as="sourcePoint" />
            <mxPoint x="492" y="726" as="targetPoint" />
          </mxGeometry>
        </mxCell>
        <mxCell id="DTLKnMH4hchgX7WC-vSb-118" style="edgeStyle=orthogonalEdgeStyle;rounded=0;orthogonalLoop=1;jettySize=auto;html=1;exitX=1;exitY=0.5;exitDx=0;exitDy=0;" parent="1" source="DTLKnMH4hchgX7WC-vSb-119" edge="1">
          <mxGeometry relative="1" as="geometry">
            <mxPoint x="410" y="350" as="targetPoint" />
            <Array as="points">
              <mxPoint x="472" y="695" />
              <mxPoint x="550" y="695" />
              <mxPoint x="550" y="350" />
            </Array>
          </mxGeometry>
        </mxCell>
        <mxCell id="DTLKnMH4hchgX7WC-vSb-119" value="0.10" style="text;html=1;strokeColor=none;fillColor=none;align=center;verticalAlign=middle;whiteSpace=wrap;rounded=0;" parent="1" vertex="1">
          <mxGeometry x="412" y="755" width="60" height="30" as="geometry" />
        </mxCell>
        <mxCell id="DTLKnMH4hchgX7WC-vSb-120" style="edgeStyle=orthogonalEdgeStyle;rounded=0;orthogonalLoop=1;jettySize=auto;html=1;exitX=0;exitY=0.5;exitDx=0;exitDy=0;" parent="1" source="DTLKnMH4hchgX7WC-vSb-121" edge="1">
          <mxGeometry relative="1" as="geometry">
            <mxPoint x="190" y="575" as="targetPoint" />
          </mxGeometry>
        </mxCell>
        <mxCell id="DTLKnMH4hchgX7WC-vSb-121" value="DELETE CONTENT" style="ellipse;whiteSpace=wrap;html=1;aspect=fixed;" parent="1" vertex="1">
          <mxGeometry x="395" y="915" width="90" height="90" as="geometry" />
        </mxCell>
        <mxCell id="DTLKnMH4hchgX7WC-vSb-122" value="" style="endArrow=none;html=1;rounded=0;exitX=0.051;exitY=0.274;exitDx=0;exitDy=0;exitPerimeter=0;entryX=0.972;entryY=0.286;entryDx=0;entryDy=0;entryPerimeter=0;" parent="1" source="DTLKnMH4hchgX7WC-vSb-121" target="DTLKnMH4hchgX7WC-vSb-121" edge="1">
          <mxGeometry width="50" height="50" relative="1" as="geometry">
            <mxPoint x="412" y="886" as="sourcePoint" />
            <mxPoint x="492" y="886" as="targetPoint" />
          </mxGeometry>
        </mxCell>
        <mxCell id="DTLKnMH4hchgX7WC-vSb-123" style="edgeStyle=orthogonalEdgeStyle;rounded=0;orthogonalLoop=1;jettySize=auto;html=1;exitX=1;exitY=0.5;exitDx=0;exitDy=0;" parent="1" source="DTLKnMH4hchgX7WC-vSb-124" edge="1">
          <mxGeometry relative="1" as="geometry">
            <mxPoint x="410" y="350" as="targetPoint" />
            <Array as="points">
              <mxPoint x="472" y="855" />
              <mxPoint x="560" y="855" />
              <mxPoint x="560" y="350" />
            </Array>
          </mxGeometry>
        </mxCell>
        <mxCell id="DTLKnMH4hchgX7WC-vSb-124" value="0.11" style="text;html=1;strokeColor=none;fillColor=none;align=center;verticalAlign=middle;whiteSpace=wrap;rounded=0;" parent="1" vertex="1">
          <mxGeometry x="412" y="915" width="60" height="30" as="geometry" />
        </mxCell>
        <mxCell id="DTLKnMH4hchgX7WC-vSb-125" value="VIEW" style="text;html=1;align=center;verticalAlign=middle;resizable=0;points=[];autosize=1;strokeColor=none;fillColor=none;" parent="1" vertex="1">
          <mxGeometry x="595" y="463" width="50" height="30" as="geometry" />
        </mxCell>
        <mxCell id="DTLKnMH4hchgX7WC-vSb-126" value="" style="endArrow=classic;html=1;rounded=0;exitX=0.75;exitY=1;exitDx=0;exitDy=0;entryX=1;entryY=0.5;entryDx=0;entryDy=0;" parent="1" source="DTLKnMH4hchgX7WC-vSb-104" target="DTLKnMH4hchgX7WC-vSb-121" edge="1">
          <mxGeometry width="50" height="50" relative="1" as="geometry">
            <mxPoint x="725.8299999999999" y="354.71000000000004" as="sourcePoint" />
            <mxPoint y="595" as="targetPoint" />
            <Array as="points">
              <mxPoint x="726" y="960" />
            </Array>
          </mxGeometry>
        </mxCell>
        <mxCell id="DTLKnMH4hchgX7WC-vSb-127" value="FETCH CONTENT FROM DB" style="text;html=1;align=center;verticalAlign=middle;resizable=0;points=[];autosize=1;strokeColor=none;fillColor=none;" parent="1" vertex="1">
          <mxGeometry x="217" y="440" width="180" height="30" as="geometry" />
        </mxCell>
        <mxCell id="DTLKnMH4hchgX7WC-vSb-128" value="UPLOAD NEW CONTENT" style="text;html=1;align=center;verticalAlign=middle;resizable=0;points=[];autosize=1;strokeColor=none;fillColor=none;" parent="1" vertex="1">
          <mxGeometry x="220" y="623" width="170" height="30" as="geometry" />
        </mxCell>
        <mxCell id="DTLKnMH4hchgX7WC-vSb-129" value="UDPATE CONTENT" style="text;html=1;align=center;verticalAlign=middle;resizable=0;points=[];autosize=1;strokeColor=none;fillColor=none;" parent="1" vertex="1">
          <mxGeometry x="245" y="803" width="130" height="30" as="geometry" />
        </mxCell>
        <mxCell id="DTLKnMH4hchgX7WC-vSb-130" value="DELETE CONTENT" style="text;html=1;align=center;verticalAlign=middle;resizable=0;points=[];autosize=1;strokeColor=none;fillColor=none;" parent="1" vertex="1">
          <mxGeometry x="245" y="953" width="130" height="30" as="geometry" />
        </mxCell>
        <mxCell id="DTLKnMH4hchgX7WC-vSb-131" value="UPLOAD&amp;nbsp;" style="text;html=1;align=center;verticalAlign=middle;resizable=0;points=[];autosize=1;strokeColor=none;fillColor=none;" parent="1" vertex="1">
          <mxGeometry x="580" y="613" width="80" height="30" as="geometry" />
        </mxCell>
        <mxCell id="DTLKnMH4hchgX7WC-vSb-132" value="UPDATE" style="text;html=1;align=center;verticalAlign=middle;resizable=0;points=[];autosize=1;strokeColor=none;fillColor=none;" parent="1" vertex="1">
          <mxGeometry x="575" y="803" width="70" height="30" as="geometry" />
        </mxCell>
        <mxCell id="DTLKnMH4hchgX7WC-vSb-133" value="&lt;div style=&quot;text-align: center;&quot;&gt;&lt;span style=&quot;background-color: initial;&quot;&gt;DELETE&lt;/span&gt;&lt;/div&gt;" style="text;whiteSpace=wrap;html=1;" parent="1" vertex="1">
          <mxGeometry x="592" y="965" width="180" height="40" as="geometry" />
        </mxCell>
        <mxCell id="DTLKnMH4hchgX7WC-vSb-134" value="" style="endArrow=classic;html=1;rounded=0;entryX=0.5;entryY=0;entryDx=0;entryDy=0;exitX=0.5;exitY=0;exitDx=0;exitDy=0;" parent="1" source="DTLKnMH4hchgX7WC-vSb-145" target="DTLKnMH4hchgX7WC-vSb-99" edge="1">
          <mxGeometry width="50" height="50" relative="1" as="geometry">
            <mxPoint x="406" y="160" as="sourcePoint" />
            <mxPoint x="-60" y="370" as="targetPoint" />
            <Array as="points">
              <mxPoint x="430" y="310" />
              <mxPoint x="430" y="60" />
              <mxPoint x="-685" y="60" />
            </Array>
          </mxGeometry>
        </mxCell>
        <mxCell id="DTLKnMH4hchgX7WC-vSb-135" value="NOTIFY STUDENT&lt;br&gt;WHEN COURSE HAS A CHANGE" style="text;html=1;align=center;verticalAlign=middle;resizable=0;points=[];autosize=1;strokeColor=none;fillColor=none;" parent="1" vertex="1">
          <mxGeometry x="160" y="60" width="210" height="40" as="geometry" />
        </mxCell>
        <mxCell id="DTLKnMH4hchgX7WC-vSb-136" style="edgeStyle=orthogonalEdgeStyle;rounded=0;orthogonalLoop=1;jettySize=auto;html=1;exitX=0;exitY=0.5;exitDx=0;exitDy=0;entryX=0.5;entryY=1;entryDx=0;entryDy=0;" parent="1" source="DTLKnMH4hchgX7WC-vSb-137" target="DTLKnMH4hchgX7WC-vSb-76" edge="1">
          <mxGeometry relative="1" as="geometry" />
        </mxCell>
        <mxCell id="DTLKnMH4hchgX7WC-vSb-137" value="LIVE STREAM CLASSES" style="ellipse;whiteSpace=wrap;html=1;aspect=fixed;" parent="1" vertex="1">
          <mxGeometry x="398" y="1051" width="90" height="90" as="geometry" />
        </mxCell>
        <mxCell id="DTLKnMH4hchgX7WC-vSb-138" value="" style="endArrow=none;html=1;rounded=0;exitX=0.051;exitY=0.274;exitDx=0;exitDy=0;exitPerimeter=0;entryX=0.972;entryY=0.286;entryDx=0;entryDy=0;entryPerimeter=0;" parent="1" source="DTLKnMH4hchgX7WC-vSb-137" target="DTLKnMH4hchgX7WC-vSb-137" edge="1">
          <mxGeometry width="50" height="50" relative="1" as="geometry">
            <mxPoint x="415" y="1022" as="sourcePoint" />
            <mxPoint x="495" y="1022" as="targetPoint" />
          </mxGeometry>
        </mxCell>
        <mxCell id="DTLKnMH4hchgX7WC-vSb-139" value="0.12" style="text;html=1;strokeColor=none;fillColor=none;align=center;verticalAlign=middle;whiteSpace=wrap;rounded=0;" parent="1" vertex="1">
          <mxGeometry x="415" y="1051" width="60" height="30" as="geometry" />
        </mxCell>
        <mxCell id="DTLKnMH4hchgX7WC-vSb-140" value="" style="endArrow=classic;html=1;rounded=0;exitX=0.838;exitY=1.031;exitDx=0;exitDy=0;exitPerimeter=0;entryX=1;entryY=0.5;entryDx=0;entryDy=0;" parent="1" source="DTLKnMH4hchgX7WC-vSb-104" target="DTLKnMH4hchgX7WC-vSb-137" edge="1">
          <mxGeometry width="50" height="50" relative="1" as="geometry">
            <mxPoint x="736" y="358" as="sourcePoint" />
            <mxPoint x="495" y="970" as="targetPoint" />
            <Array as="points">
              <mxPoint x="736" y="1096" />
            </Array>
          </mxGeometry>
        </mxCell>
        <mxCell id="DTLKnMH4hchgX7WC-vSb-141" value="SAVE RECORDING TO DB" style="text;html=1;align=center;verticalAlign=middle;resizable=0;points=[];autosize=1;strokeColor=none;fillColor=none;" parent="1" vertex="1">
          <mxGeometry x="185" y="1093" width="170" height="30" as="geometry" />
        </mxCell>
        <mxCell id="DTLKnMH4hchgX7WC-vSb-142" value="LIVE CLASSES" style="text;html=1;align=center;verticalAlign=middle;resizable=0;points=[];autosize=1;strokeColor=none;fillColor=none;" parent="1" vertex="1">
          <mxGeometry x="535" y="1093" width="110" height="30" as="geometry" />
        </mxCell>
        <mxCell id="DTLKnMH4hchgX7WC-vSb-143" value="NOTIFICATION SERVICE" style="ellipse;whiteSpace=wrap;html=1;aspect=fixed;" parent="1" vertex="1">
          <mxGeometry x="320" y="310" width="90" height="90" as="geometry" />
        </mxCell>
        <mxCell id="DTLKnMH4hchgX7WC-vSb-144" value="" style="endArrow=none;html=1;rounded=0;exitX=0.051;exitY=0.274;exitDx=0;exitDy=0;exitPerimeter=0;entryX=0.972;entryY=0.286;entryDx=0;entryDy=0;entryPerimeter=0;" parent="1" source="DTLKnMH4hchgX7WC-vSb-143" target="DTLKnMH4hchgX7WC-vSb-143" edge="1">
          <mxGeometry width="50" height="50" relative="1" as="geometry">
            <mxPoint x="337" y="281" as="sourcePoint" />
            <mxPoint x="417" y="281" as="targetPoint" />
          </mxGeometry>
        </mxCell>
        <mxCell id="DTLKnMH4hchgX7WC-vSb-145" value="0.13" style="text;html=1;strokeColor=none;fillColor=none;align=center;verticalAlign=middle;whiteSpace=wrap;rounded=0;" parent="1" vertex="1">
          <mxGeometry x="337" y="310" width="60" height="30" as="geometry" />
        </mxCell>
        <mxCell id="DTLKnMH4hchgX7WC-vSb-146" style="edgeStyle=orthogonalEdgeStyle;rounded=0;orthogonalLoop=1;jettySize=auto;html=1;exitX=0;exitY=1;exitDx=0;exitDy=0;entryX=0.5;entryY=0;entryDx=0;entryDy=0;" parent="1" source="DTLKnMH4hchgX7WC-vSb-147" target="DTLKnMH4hchgX7WC-vSb-158" edge="1">
          <mxGeometry relative="1" as="geometry" />
        </mxCell>
        <mxCell id="DTLKnMH4hchgX7WC-vSb-147" value="&lt;b&gt;ADMIN&lt;/b&gt;" style="rounded=0;whiteSpace=wrap;html=1;" parent="1" vertex="1">
          <mxGeometry x="625" y="40" width="140" height="40" as="geometry" />
        </mxCell>
        <mxCell id="DTLKnMH4hchgX7WC-vSb-148" style="edgeStyle=orthogonalEdgeStyle;rounded=0;orthogonalLoop=1;jettySize=auto;html=1;entryX=1;entryY=0.5;entryDx=0;entryDy=0;" parent="1" target="DTLKnMH4hchgX7WC-vSb-150" edge="1">
          <mxGeometry relative="1" as="geometry">
            <mxPoint x="540" y="250" as="targetPoint" />
            <mxPoint x="632" y="202.5" as="sourcePoint" />
          </mxGeometry>
        </mxCell>
        <mxCell id="DTLKnMH4hchgX7WC-vSb-149" style="edgeStyle=orthogonalEdgeStyle;rounded=0;orthogonalLoop=1;jettySize=auto;html=1;exitX=0;exitY=0.5;exitDx=0;exitDy=0;entryX=1;entryY=0.5;entryDx=0;entryDy=0;" parent="1" source="DTLKnMH4hchgX7WC-vSb-150" target="DTLKnMH4hchgX7WC-vSb-156" edge="1">
          <mxGeometry relative="1" as="geometry" />
        </mxCell>
        <mxCell id="DTLKnMH4hchgX7WC-vSb-150" value="FILL REGISTRATION FORM" style="ellipse;whiteSpace=wrap;html=1;aspect=fixed;" parent="1" vertex="1">
          <mxGeometry x="450" y="158" width="90" height="90" as="geometry" />
        </mxCell>
        <mxCell id="DTLKnMH4hchgX7WC-vSb-151" value="" style="endArrow=none;html=1;rounded=0;exitX=0.051;exitY=0.274;exitDx=0;exitDy=0;exitPerimeter=0;entryX=0.972;entryY=0.286;entryDx=0;entryDy=0;entryPerimeter=0;" parent="1" source="DTLKnMH4hchgX7WC-vSb-150" target="DTLKnMH4hchgX7WC-vSb-150" edge="1">
          <mxGeometry width="50" height="50" relative="1" as="geometry">
            <mxPoint x="455" y="188" as="sourcePoint" />
            <mxPoint x="535" y="188" as="targetPoint" />
          </mxGeometry>
        </mxCell>
        <mxCell id="DTLKnMH4hchgX7WC-vSb-152" value="0.14" style="text;html=1;strokeColor=none;fillColor=none;align=center;verticalAlign=middle;whiteSpace=wrap;rounded=0;" parent="1" vertex="1">
          <mxGeometry x="465" y="158" width="60" height="30" as="geometry" />
        </mxCell>
        <mxCell id="DTLKnMH4hchgX7WC-vSb-153" value="STORE IN DB" style="text;html=1;align=center;verticalAlign=middle;resizable=0;points=[];autosize=1;strokeColor=none;fillColor=none;" parent="1" vertex="1">
          <mxGeometry x="117" y="202.5" width="100" height="30" as="geometry" />
        </mxCell>
        <mxCell id="DTLKnMH4hchgX7WC-vSb-154" value="REGISTRATION" style="text;html=1;align=center;verticalAlign=middle;resizable=0;points=[];autosize=1;strokeColor=none;fillColor=none;" parent="1" vertex="1">
          <mxGeometry x="525" y="218" width="110" height="30" as="geometry" />
        </mxCell>
        <mxCell id="DTLKnMH4hchgX7WC-vSb-155" style="edgeStyle=orthogonalEdgeStyle;rounded=0;orthogonalLoop=1;jettySize=auto;html=1;exitX=0;exitY=0.5;exitDx=0;exitDy=0;entryX=1;entryY=0.7;entryDx=0;entryDy=0;" parent="1" source="DTLKnMH4hchgX7WC-vSb-156" target="DTLKnMH4hchgX7WC-vSb-68" edge="1">
          <mxGeometry relative="1" as="geometry" />
        </mxCell>
        <mxCell id="DTLKnMH4hchgX7WC-vSb-156" value="VERIFY USER APPLIE FOR TEACCHER" style="ellipse;whiteSpace=wrap;html=1;aspect=fixed;" parent="1" vertex="1">
          <mxGeometry x="296" y="152.5" width="102" height="102" as="geometry" />
        </mxCell>
        <mxCell id="DTLKnMH4hchgX7WC-vSb-157" value="" style="endArrow=none;html=1;rounded=0;exitX=0.051;exitY=0.274;exitDx=0;exitDy=0;exitPerimeter=0;entryX=0.972;entryY=0.286;entryDx=0;entryDy=0;entryPerimeter=0;" parent="1" source="DTLKnMH4hchgX7WC-vSb-156" target="DTLKnMH4hchgX7WC-vSb-156" edge="1">
          <mxGeometry width="50" height="50" relative="1" as="geometry">
            <mxPoint x="310" y="188" as="sourcePoint" />
            <mxPoint x="390" y="188" as="targetPoint" />
          </mxGeometry>
        </mxCell>
        <mxCell id="DTLKnMH4hchgX7WC-vSb-158" value="0.15" style="text;html=1;strokeColor=none;fillColor=none;align=center;verticalAlign=middle;whiteSpace=wrap;rounded=0;" parent="1" vertex="1">
          <mxGeometry x="320" y="158" width="60" height="30" as="geometry" />
        </mxCell>
        <mxCell id="DTLKnMH4hchgX7WC-vSb-159" value="&lt;font style=&quot;font-size: 36px;&quot;&gt;DFD_1&lt;/font&gt;" style="text;html=1;align=center;verticalAlign=middle;resizable=0;points=[];autosize=1;strokeColor=none;fillColor=none;" parent="1" vertex="1">
          <mxGeometry x="50" y="1210" width="140" height="60" as="geometry" />
        </mxCell>
      </root>
    </mxGraphModel>
  </diagram>
</mxfile>
